mtllib materials.mtl
v 0.1739743 0.001847506 0.04349414
v 0.1723509 -0.01845562 0.03977039
v 0.06649339 -0.01788896 0.08283031
v 0.06811678 0.002414167 0.08655408
v 0.1671293 -0.03400815 0.02713823
v 0.06127173 -0.03344154 0.07019818
v 0.1597085 -0.04064286 0.00898248
v 0.05385095 -0.0400762 0.05204242
v 0.152077 -0.03658193 -0.009832084
v 0.04621947 -0.03601527 0.03322786
v 0.1462796 -0.02291346 -0.02426407
v 0.04042208 -0.02234685 0.01879585
v 0.1438698 -0.003300011 -0.0304465
v 0.03801221 -0.00273335 0.01261345
v 0.1454931 0.01700312 -0.02672273
v 0.0396356 0.01756978 0.01633719
v 0.1507148 0.0325557 -0.0140906
v 0.04485726 0.0331223 0.02896935
v 0.1581356 0.03919035 0.004065156
v 0.05227804 0.03975701 0.0471251
v 0.1657671 0.03512943 0.02287972
v 0.05990958 0.03569609 0.06593964
v 0.1715645 0.02146101 0.03731173
v 0.06570697 0.02202761 0.08037168
v 0.05922657 -0.0006901622 0.03871828
v 0.0007994771 0.03372079 0.04532042
v -0.00413394 0.00695622 0.03854027
v 0.007687926 0.05208004 0.0570828
v 0.01468569 0.05711466 0.07067567
v 0.01991773 0.04747558 0.08245683
v 0.02198207 0.02574557 0.08926955
v 0.0203256 -0.002252758 0.08928832
v 0.01539218 -0.02901733 0.08250815
v 0.008503735 -0.04737657 0.07074577
v 0.001505971 -0.0524112 0.05715293
v -0.003726065 -0.04277211 0.04537174
v -0.005790412 -0.02104211 0.03855905
v 0.1905981 0.005348742 -0.03558841
v 0.1950809 0.02929372 -0.02536225
v 0.1473842 -0.0002071857 0.005834669
v 0.2004453 0.04471236 -0.01131073
v 0.2052539 0.04747349 0.00280121
v 0.2082184 0.03683716 0.01319224
v 0.2085443 0.01565331 0.0170781
v 0.2061443 -0.01040179 0.01341754
v 0.2016615 -0.03434676 0.003191411
v 0.1962971 -0.04976547 -0.01086015
v 0.1914884 -0.05252653 -0.02497208
v 0.188524 -0.0418902 -0.03536308
v 0.1881981 -0.02070636 -0.03924894
v -0.08657926 0.01700622 0.06920004
v -0.08507568 -0.003639102 0.06872138
v -0.1808713 -0.009176552 0.00665015
v -0.1823749 0.01146877 0.007128835
v -0.07817847 -0.02090949 0.05961752
v -0.1739741 -0.026447 -0.002453685
v -0.06773573 -0.03017747 0.04432788
v -0.1635314 -0.03571492 -0.01774335
v -0.05654562 -0.02895957 0.02694926
v -0.1523412 -0.03449702 -0.03512195
v -0.04760641 -0.01758218 0.01213828
v -0.143402 -0.02311963 -0.04993293
v -0.0433135 0.0009061098 0.003863513
v -0.1391091 -0.004631341 -0.05820769
v -0.04481703 0.02155143 0.004342198
v -0.1406127 0.01601398 -0.05772901
v -0.05171424 0.03882188 0.01344603
v -0.1475099 0.03328437 -0.04862517
v -0.06215698 0.0480898 0.0287357
v -0.1579526 0.04255235 -0.03333554
v -0.07334709 0.0468719 0.0461143
v -0.1691427 0.04133445 -0.01595691
v -0.0822863 0.03549451 0.06092528
v -0.1780819 0.02995706 -0.001145929
v -0.1483268 0.002349436 -0.02655345
v -0.1860811 0.03116941 -0.07539448
v -0.1841612 0.003469169 -0.07935208
v -0.1912264 0.05129105 -0.06582835
v -0.1982184 0.05844259 -0.05321687
v -0.2051837 0.0507077 -0.04093927
v -0.2102558 0.03015894 -0.03228539
v -0.2120757 0.002302408 -0.02957395
v -0.2101557 -0.02539784 -0.03353155
v -0.2050104 -0.04551953 -0.0430977
v -0.1980184 -0.05267102 -0.05570918
v -0.1910532 -0.04493612 -0.06798676
v -0.1859811 -0.02438736 -0.07664067
v -0.012124 0.0136438 0.0377714
v -0.01721358 0.03888059 0.04370713
v -0.0709601 0.008225679 0.02667433
v -0.02519715 0.05618584 0.05374452
v -0.03393567 0.06092274 0.0651941
v -0.04108763 0.05182207 0.07498804
v -0.04473662 0.0313223 0.08050194
v -0.04390502 0.004916251 0.0802584
v -0.03881544 -0.02032048 0.0743227
v -0.03083181 -0.03762579 0.06428531
v -0.02209336 -0.04236269 0.0528357
v -0.01494139 -0.03326201 0.0430418
v -0.0112924 -0.01276213 0.03752789
v 0.07438409 -0.02574819 -0.1064376
v 0.06633592 -0.04479295 -0.1075529
v 0.03695875 -0.03671026 -0.03358224
v 0.04500693 -0.01766551 -0.03246692
v 0.05061764 -0.05736059 -0.112422
v 0.02124047 -0.0492779 -0.0384514
v 0.03144097 -0.06008369 -0.1197405
v 0.002063811 -0.052001 -0.04576981
v 0.01394427 -0.0522325 -0.1275471
v -0.01543289 -0.04414982 -0.05357644
v 0.002815723 -0.03591084 -0.1337502
v -0.02656138 -0.02782816 -0.05977952
v 0.0010373 -0.01549208 -0.1366876
v -0.02833986 -0.007409394 -0.06271696
v 0.009085476 0.003552675 -0.1355723
v -0.02029169 0.01163536 -0.06160167
v 0.02480376 0.01612031 -0.1307031
v -0.004573405 0.024203 -0.05673248
v 0.04398042 0.01884341 -0.1233847
v 0.01460326 0.0269261 -0.04941407
v 0.06147712 0.01099223 -0.1155781
v 0.03209996 0.01907492 -0.04160744
v 0.07260561 -0.00532943 -0.109375
v 0.04322851 0.002753258 -0.03540435
vn 0.3685735 -0.1961283 0.9086734
vn 0.2799919 -0.660135 0.6970124
vn 0.1163868 -0.947259 0.2985877
vn -0.07840412 -0.9805657 -0.1798434
vn -0.2521867 -0.7511307 -0.6100857
vn -0.3583961 -0.3204307 -0.876856
vn -0.3685735 0.1961284 -0.9086733
vn -0.2799919 0.6601351 -0.6970124
vn -0.1163867 0.9472589 -0.2985877
vn 0.07840413 0.9805657 0.1798435
vn 0.2521867 0.7511308 0.6100857
vn 0.3583961 0.3204305 0.8768561
vn 0.9262863 -0.004958222 -0.3767878
vn -0.9262863 0.004958222 0.3767878
vn 0.03168418 0.2399537 -0.9702672
vn 0.1856515 0.4797496 -0.8575394
vn 0.5148168 0.6830825 -0.5180367
vn 0.8148926 0.5701043 0.1045526
vn 0.8371505 0.2344609 0.4941733
vn 0.7924542 -0.0464755 0.6081583
vn 0.7634794 -0.2872607 0.5784295
vn 0.7445469 -0.5350901 0.3991598
vn 0.6557112 -0.7527209 -0.05877173
vn 0.3556354 -0.6397426 -0.6813611
vn 0.09304804 -0.2898014 -0.9525531
vn 0.002709474 -0.0008311665 -0.999996
vn -0.8957295 0.05328973 0.4413942
vn -0.661475 0.3958685 -0.6369765
vn -0.6608102 0.6180254 -0.4258807
vn -0.6325494 0.7718272 0.06452877
vn -0.4300793 0.5666955 0.7027717
vn -0.2212244 0.1726608 0.9598167
vn -0.1481604 -0.1241947 0.9811342
vn -0.1802866 -0.3575779 0.916316
vn -0.3238993 -0.5732319 0.7526582
vn -0.6065737 -0.7154611 0.3466754
vn -0.8090441 -0.5103295 -0.291567
vn -0.7634857 -0.1278671 -0.63304
vn -0.6936013 0.1624852 -0.7017947
vn 0.9482211 -0.0431333 -0.3146687
vn -0.5404428 -0.05881952 0.8393223
vn -0.431729 -0.5494853 0.7153154
vn -0.2073338 -0.8929168 0.3996404
vn 0.07261628 -0.997092 -0.02311794
vn 0.333109 -0.8340973 -0.4396819
vn 0.5043454 -0.4476067 -0.7384335
vn 0.5404428 0.05881967 -0.8393223
vn 0.4317289 0.5494853 -0.7153153
vn 0.2073338 0.8929168 -0.3996404
vn -0.07261632 0.997092 0.02311798
vn -0.3331089 0.8340973 0.4396819
vn -0.5043454 0.4476066 0.7384335
vn 0.8382414 0.04845453 0.5431423
vn -0.8382414 -0.04845453 -0.5431424
vn 0.8210647 0.1361126 -0.55437
vn 0.8239782 0.4010137 -0.40031
vn 0.7399597 0.6720185 0.02917051
vn 0.3974978 0.6577039 0.6398602
vn 0.08045419 0.3699351 0.9255675
vn -0.04716515 0.09982137 0.9938869
vn -0.04672534 -0.1444543 0.9884077
vn 0.08185969 -0.4107717 0.908056
vn 0.3999139 -0.6842976 0.6097587
vn 0.7423759 -0.669983 -0.0009309425
vn 0.8253838 -0.3796931 -0.4178214
vn 0.8215045 -0.1081628 -0.5598491
vn -0.8722717 0.009396466 -0.4889314
vn 0.1563622 0.2559092 -0.9539713
vn -0.009547409 0.4984093 -0.8668892
vn -0.3908111 0.7061616 -0.5904257
vn -0.8047198 0.5924955 -0.03708429
vn -0.9081897 0.2516268 0.334478
vn -0.8930029 -0.03226494 0.4488928
vn -0.8653648 -0.2733156 0.4200504
vn -0.8198586 -0.5187712 0.2422982
vn -0.6528828 -0.7317849 -0.1955379
vn -0.2389748 -0.6181188 -0.7488793
vn 0.07878407 -0.2719886 -0.95907
vn 0.1840001 0.0148585 -0.9828139
vn 0.7986721 0.01960775 0.6014469
vn 0.845026 -0.3791814 0.3770313
vn 0.5374657 -0.7882758 0.2995861
vn 0.08589201 -0.9861522 0.1418672
vn -0.3886963 -0.9197901 -0.05386488
vn -0.7591339 -0.6069708 -0.235164
vn -0.9261622 -0.1315143 -0.3534511
vn -0.845026 0.3791816 -0.3770313
vn -0.5374657 0.7882758 -0.2995861
vn -0.08589206 0.9861522 -0.1418673
vn 0.3886963 0.9197901 0.05386492
vn 0.7591338 0.606971 0.235164
vn 0.9261621 0.1315141 0.3534511
vn 0.3672143 -0.1010335 -0.9246329
vn -0.3672143 0.1010335 0.9246329
vt 0.06362776 0.09801762
vt 0.06175866 0.09712674
vt 0.06667574 0.08681048
vt 0.06854485 0.08770136
vt 0.0799486 0.09648718
vt 0.07801777 0.09573945
vt 0.08214477 0.08508249
vt 0.08407559 0.08583021
vt 0.07685309 0.07716364
vt 0.07482048 0.07676907
vt 0.07699823 0.06555032
vt 0.07903084 0.06594489
vt 0.05007629 0.05862828
vt 0.04800843 0.05873381
vt 0.04742593 0.04732051
vt 0.04949378 0.04721497
vt 0.008504413 0.06109362
vt 0.006511855 0.06165656
vt 0.003404822 0.05065886
vt 0.00539738 0.05009593
vt -0.03165079 0.08058846
vt -0.03354719 0.08141963
vt -0.03813481 0.0709527
vt -0.03623841 0.07012152
vt -0.06175867 0.09712674
vt -0.06362776 0.09801762
vt -0.06854485 0.08770135
vt -0.06667575 0.08681048
vt -0.07801777 0.09573945
vt -0.0799486 0.09648718
vt -0.08407559 0.08583021
vt -0.08214477 0.08508249
vt -0.07482047 0.07676907
vt -0.07685308 0.07716363
vt -0.07903084 0.06594488
vt -0.07699823 0.06555031
vt -0.04800842 0.05873382
vt -0.05007628 0.05862828
vt -0.04949377 0.04721497
vt -0.04742592 0.04732051
vt -0.006511862 0.06165655
vt -0.008504421 0.06109362
vt -0.005397392 0.05009593
vt -0.003404827 0.05065886
vt 0.0335472 0.08141964
vt 0.0316508 0.08058846
vt 0.03623842 0.07012153
vt 0.03813482 0.07095271
vt 0.05933497 0.09562945
vt 0.05766224 0.09684975
vt 0.05560346 0.09707021
vt 0.05371027 0.09623174
vt 0.05248997 0.094559
vt 0.05226951 0.09250022
vt 0.05310799 0.09060704
vt 0.05478071 0.08938672
vt 0.0568395 0.08916628
vt 0.05873268 0.09000476
vt 0.05995299 0.09167748
vt 0.06017344 0.09373627
vt -0.06017344 0.09373627
vt -0.05995299 0.09167748
vt -0.05873268 0.09000475
vt -0.0568395 0.08916628
vt -0.05478071 0.08938673
vt -0.05310798 0.09060703
vt -0.05226951 0.09250022
vt -0.05248996 0.09455901
vt -0.05371027 0.09623174
vt -0.05560346 0.09707021
vt -0.05766224 0.09684975
vt -0.05933497 0.09562945
vt -0.06038452 0.1020272
vt -0.06582492 0.09792642
vt -0.06345224 0.0964308
vt -0.0720502 0.09302966
vt -0.07882061 0.08957374
vt -0.07693483 0.08828048
vt -0.08315188 0.0403798
vt -0.08935653 0.03538302
vt -0.08799647 0.03452218
vt 0.01975079 -0.03666163
vt 0.02416429 -0.04285055
vt 0.02558241 -0.04208913
vt 0.06029833 0.02635614
vt 0.06514496 0.02156817
vt 0.06704098 0.02284636
vt 0.0723287 0.05649059
vt 0.07543538 0.05091573
vt 0.07779757 0.05242787
vt 0.07973835 0.07207177
vt 0.08095513 0.0653685
vt 0.08335786 0.06681536
vt 0.08312286 0.08299209
vt 0.08298428 0.07539191
vt 0.08501307 0.07644675
vt 0.07006571 0.09448107
vt 0.06950468 0.08653431
vt 0.07106099 0.08694507
vt 0.02161021 0.1025118
vt 0.02099071 0.09493567
vt 0.02256551 0.09460277
vt -0.02249615 0.1029156
vt -0.02416958 0.09631146
vt -0.02210712 0.09532408
vt -0.04608705 0.1029509
vt -0.04960789 0.09762795
vt -0.0471786 0.09622615
vt -0.04354862 0.1018252
vt -0.04378232 0.1046202
vt -0.04471707 0.106707
vt -0.04610241 0.1075266
vt -0.04756715 0.1068592
vt -0.0487188 0.1048838
vt -0.04924878 0.1021296
vt -0.04901508 0.09933458
vt -0.04808033 0.09724773
vt -0.04669499 0.0964282
vt -0.04523025 0.09709556
vt -0.04407861 0.099071
vt -0.07418747 0.09312631
vt -0.07658334 0.09423991
vt -0.07704907 0.08783925
vt -0.07958025 0.09967683
vt -0.0816185 0.1003733
vt -0.08041812 0.09331418
vt -0.06907211 0.1086684
vt -0.07058499 0.108769
vt -0.06864037 0.101521
vt -0.02282317 0.1224918
vt -0.02423643 0.1219426
vt -0.02250706 0.1149941
vt 0.02147327 0.1249191
vt 0.01961371 0.123832
vt 0.02169727 0.1177621
vt 0.04460003 0.1208526
vt 0.04234061 0.1194832
vt 0.04576429 0.1145416
vt 0.05787691 0.1128574
vt 0.0556027 0.1115127
vt 0.06061553 0.1075056
vt 0.06905183 0.09244056
vt 0.06716347 0.09140436
vt 0.07318711 0.08753294
vt 0.07280744 0.01510066
vt 0.07131388 0.01483944
vt 0.07492269 0.008259764
vt -0.02434142 -0.002286275
vt -0.02556288 -0.00138796
vt -0.03050031 -0.006573895
vt -0.05264645 0.05649267
vt -0.05446381 0.05764887
vt -0.05890794 0.05301908
vt -0.06504116 0.08173762
vt -0.06736086 0.08300224
vt -0.06991126 0.07755823
vt 0.06063933 0.0856892
vt 0.06092479 0.08355422
vt 0.06195651 0.08244316
vt 0.06345805 0.08265369
vt 0.06502707 0.08412942
vt 0.06624314 0.08647494
vt 0.06678043 0.08906175
vt 0.06649497 0.09119673
vt 0.06546324 0.0923078
vt 0.06396171 0.09209726
vt 0.0623927 0.09062153
vt 0.06117662 0.08827601
vt 0.03290575 0.109107
vt 0.03114977 0.1080099
vt 0.0372053 0.09831797
vt 0.03896128 0.0994151
vt 0.08016993 0.06677686
vt 0.07811165 0.0670019
vt 0.07686954 0.05564144
vt 0.07892783 0.05541639
vt 0.0784494 0.03296519
vt 0.07684373 0.03427249
vt 0.06962827 0.02541021
vt 0.07123394 0.02410291
vt 0.05780626 0.04801794
vt 0.05654434 0.04965951
vt 0.04748388 0.04269453
vt 0.04874579 0.04105296
vt 0.03617894 0.07953008
vt 0.03499734 0.08123038
vt 0.02561276 0.07470868
vt 0.02679436 0.07300837
vt 0.009794796 0.1051428
vt 0.00846372 0.1067288
vt -0.0002900649 0.09938209
vt 0.001041009 0.09779608
vt -0.03114979 0.1080099
vt -0.03290576 0.109107
vt -0.0389613 0.09941509
vt -0.03720532 0.09831794
vt -0.07811166 0.0670019
vt -0.08016994 0.06677686
vt -0.07892783 0.05541639
vt -0.07686955 0.05564144
vt -0.07684372 0.03427248
vt -0.07844939 0.03296519
vt -0.07123393 0.0241029
vt -0.06962826 0.0254102
vt -0.05654434 0.04965952
vt -0.05780626 0.04801795
vt -0.04874579 0.04105296
vt -0.04748388 0.04269454
vt -0.03499735 0.08123037
vt -0.03617895 0.07953008
vt -0.02679436 0.07300837
vt -0.02561276 0.07470867
vt -0.008463709 0.1067288
vt -0.009794784 0.1051428
vt -0.001040998 0.09779609
vt 0.0002900762 0.0993821
vt 0.07843302 0.03883161
vt 0.07858989 0.04089621
vt 0.07769345 0.04276265
vt 0.07598389 0.04393081
vt 0.07391928 0.04408767
vt 0.07205285 0.04319123
vt 0.0708847 0.04148167
vt 0.07072783 0.03941707
vt 0.07162426 0.03755063
vt 0.07333384 0.03638248
vt 0.07539843 0.03622561
vt 0.07726487 0.03712205
vt -0.07726486 0.03712205
vt -0.07539843 0.03622561
vt -0.07333382 0.03638247
vt -0.07162426 0.03755064
vt -0.07072782 0.03941707
vt -0.07088469 0.04148167
vt -0.07205284 0.04319123
vt -0.07391928 0.04408767
vt -0.07598387 0.0439308
vt -0.07769344 0.04276265
vt -0.07858989 0.04089621
vt -0.07843301 0.03883161
vt -0.005029087 0.1004254
vt -0.01171005 0.09909163
vt -0.01022139 0.09671457
vt -0.05006631 0.06926248
vt -0.05673814 0.06561989
vt -0.05481718 0.0643795
vt 0.005740572 -0.04293209
vt 0.01330331 -0.0454362
vt 0.01328919 -0.04382665
vt 0.02375018 0.03128577
vt 0.03089638 0.0286947
vt 0.0316319 0.03012643
vt 0.03637153 0.07415588
vt 0.04194122 0.07023253
vt 0.04360057 0.07180582
vt 0.04877862 0.08608694
vt 0.05184035 0.08048727
vt 0.05421463 0.08198036
vt 0.06216918 0.0846014
vt 0.06212812 0.07778873
vt 0.06475656 0.07876737
vt 0.07521588 0.07535256
vt 0.07199714 0.06846622
vt 0.07427959 0.06860439
vt 0.07933503 0.06828787
vt 0.07381503 0.06254373
vt 0.07527338 0.06186255
vt 0.06344432 0.08284271
vt 0.05745889 0.07815693
vt 0.05828294 0.07677427
vt 0.03772834 0.09942666
vt 0.03207142 0.09563012
vt 0.0329466 0.09351761
vt 0.01500191 0.1045556
vt 0.009117296 0.1020854
vt 0.01035853 0.0995703
vt -0.07532252 0.04603501
vt -0.07789819 0.0471452
vt -0.08017933 0.04730344
vt -0.08155473 0.04646734
vt -0.08165587 0.04486091
vt -0.08045562 0.04291461
vt -0.07827561 0.04114995
vt -0.07569995 0.04003976
vt -0.0734188 0.03988152
vt -0.0720434 0.04071762
vt -0.07194226 0.04232404
vt -0.07314251 0.04427034
vt -0.06243663 0.09820825
vt -0.06502195 0.09875272
vt -0.06403193 0.09241197
vt -0.08043146 0.08622873
vt -0.08256701 0.08594763
vt -0.07835667 0.0801558
vt -0.08818009 0.07904071
vt -0.08939957 0.07813971
vt -0.08323129 0.07386562
vt -0.0793629 0.08981085
vt -0.07987129 0.0883824
vt -0.07348289 0.08514812
vt -0.06044276 0.1011642
vt -0.06086352 0.09905169
vt -0.05493997 0.09658251
vt -0.04008614 0.1039843
vt -0.04081161 0.1014438
vt -0.034941 0.1001485
vt -0.01823205 0.09813435
vt -0.01931373 0.0957239
vt -0.01290745 0.09534321
vt 0.03191189 -0.06950715
vt 0.03212764 -0.06736401
vt 0.0255251 -0.07013505
vt 0.005280798 -0.0224382
vt 0.005357227 -0.02092391
vt -0.00185883 -0.02298404
vt -0.009895 0.05508233
vt -0.01061616 0.05641608
vt -0.01729478 0.05383379
vt -0.02541149 0.09457361
vt -0.02705373 0.09596741
vt -0.03208908 0.09198865
vt -0.04294951 0.1029793
vt -0.04531324 0.1041595
vt -0.04766593 0.09862718
vt 0.0707514 0.04699013
vt 0.0692738 0.04542286
vt 0.06906149 0.04392157
vt 0.07017134 0.04288854
vt 0.07230598 0.04260056
vt 0.07489343 0.04313479
vt 0.07724038 0.04434809
vt 0.07871797 0.04591536
vt 0.07893027 0.04741665
vt 0.07782043 0.04844968
vt 0.07568579 0.04873766
vt 0.07309835 0.04820343
vt 0.0702787 0.08176285
vt 0.06900521 0.08013023
vt 0.07531313 0.07520986
vt 0.07658662 0.07684246
vt 0.0654365 0.08969356
vt 0.0642947 0.08796629
vt 0.07096835 0.08355467
vt 0.07211016 0.08528195
vt 0.05479769 0.06476499
vt 0.05355823 0.0631064
vt 0.05996654 0.05831749
vt 0.061206 0.05997608
vt 0.03129013 0.01860844
vt 0.02967725 0.01731005
vt 0.03469383 0.01107836
vt 0.03630671 0.01237675
vt -0.02165479 -0.006350212
vt -0.02372208 -0.006466318
vt -0.02327349 -0.01445373
vt -0.0212062 -0.01433763
vt -0.06322542 0.03846704
vt -0.06491552 0.03966319
vt -0.06953706 0.03313315
vt -0.06784696 0.03193701
vt -0.06900521 0.08013024
vt -0.07027869 0.08176286
vt -0.07658661 0.07684247
vt -0.07531312 0.07520986
vt -0.06429469 0.08796629
vt -0.0654365 0.08969356
vt -0.07211016 0.08528195
vt -0.07096834 0.08355467
vt -0.05355823 0.0631064
vt -0.05479769 0.06476499
vt -0.061206 0.05997609
vt -0.05996654 0.0583175
vt -0.02967725 0.01731005
vt -0.03129013 0.01860844
vt -0.03630671 0.01237675
vt -0.03469383 0.01107836
vt 0.02372206 -0.006466323
vt 0.02165477 -0.006350218
vt 0.02120617 -0.01433763
vt 0.02327347 -0.01445374
vt 0.06491552 0.03966321
vt 0.06322543 0.03846707
vt 0.06784697 0.03193703
vt 0.06953706 0.03313317
vt -0.02618135 0.1128428
vt -0.02825047 0.112766
vt -0.03000399 0.1116649
vt -0.03097202 0.1098346
vt -0.0308952 0.1077655
vt -0.02979411 0.1060119
vt -0.02796379 0.1050439
vt -0.02589466 0.1051207
vt -0.02414115 0.1062218
vt -0.02317312 0.1080522
vt -0.02324993 0.1101213
vt -0.02435103 0.1118748
vt 0.02435103 0.1118748
vt 0.02324994 0.1101213
vt 0.02317312 0.1080521
vt 0.02414115 0.1062218
vt 0.02589466 0.1051207
vt 0.02796379 0.1050439
vt 0.02979411 0.1060119
vt 0.0308952 0.1077655
vt 0.03097202 0.1098346
vt 0.03000399 0.1116649
vt 0.02825048 0.112766
vt 0.02618135 0.1128428
o group607043271
g mesh607043271
usemtl mat7
f 104/340/81 103/339/81 102/338/81 101/337/81
f 103/344/82 106/343/82 105/342/82 102/341/82
f 106/348/83 108/347/83 107/346/83 105/345/83
f 108/352/84 110/351/84 109/350/84 107/349/84
f 110/356/85 112/355/85 111/354/85 109/353/85
f 112/360/86 114/359/86 113/358/86 111/357/86
f 114/364/87 116/363/87 115/362/87 113/361/87
f 116/368/88 118/367/88 117/366/88 115/365/88
f 118/372/89 120/371/89 119/370/89 117/369/89
f 120/376/90 122/375/90 121/374/90 119/373/90
f 122/380/91 124/379/91 123/378/91 121/377/91
f 124/384/92 104/383/92 101/382/92 123/381/92
f 101/396/93 102/395/93 105/394/93 107/393/93 109/392/93 111/391/93 113/390/93 115/389/93 117/388/93 119/387/93 121/386/93 123/385/93
f 124/408/94 122/407/94 120/406/94 118/405/94 116/404/94 114/403/94 112/402/94 110/401/94 108/400/94 106/399/94 103/398/94 104/397/94
o group1940540970
g mesh1940540970
usemtl mat12
f 4/4/1 3/3/1 2/2/1 1/1/1
f 3/8/2 6/7/2 5/6/2 2/5/2
f 6/12/3 8/11/3 7/10/3 5/9/3
f 8/16/4 10/15/4 9/14/4 7/13/4
f 10/20/5 12/19/5 11/18/5 9/17/5
f 12/24/6 14/23/6 13/22/6 11/21/6
f 20/40/10 22/39/10 21/38/10 19/37/10
f 22/44/11 24/43/11 23/42/11 21/41/11
f 24/48/12 4/47/12 1/46/12 23/45/12
f 1/60/13 2/59/13 5/58/13 7/57/13 9/56/13 11/55/13 13/54/13 15/53/13 17/52/13 19/51/13 21/50/13 23/49/13
f 24/72/14 22/71/14 20/70/14 18/69/14 16/68/14 14/67/14 12/66/14 10/65/14 8/64/14 6/63/14 3/62/14 4/61/14
usemtl mat7
f 14/28/7 16/27/7 15/26/7 13/25/7
f 18/36/9 20/35/9 19/34/9 17/33/9
usemtl mat8
f 16/32/8 18/31/8 17/30/8 15/29/8
usemtl mat3
f 27/75/15 26/74/15 25/73/15
f 26/78/16 28/77/16 25/76/16
f 28/81/17 29/80/17 25/79/17
f 29/84/18 30/83/18 25/82/18
f 30/87/19 31/86/19 25/85/19
f 31/90/20 32/89/20 25/88/20
f 32/93/21 33/92/21 25/91/21
f 33/96/22 34/95/22 25/94/22
f 34/99/23 35/98/23 25/97/23
f 35/102/24 36/101/24 25/100/24
f 36/105/25 37/104/25 25/103/25
f 37/108/26 27/107/26 25/106/26
f 37/120/27 36/119/27 35/118/27 34/117/27 33/116/27 32/115/27 31/114/27 30/113/27 29/112/27 28/111/27 26/110/27 27/109/27
f 40/123/28 39/122/28 38/121/28
f 40/126/29 41/125/29 39/124/29
f 40/129/30 42/128/30 41/127/30
f 40/132/31 43/131/31 42/130/31
f 40/135/32 44/134/32 43/133/32
f 40/138/33 45/137/33 44/136/33
f 40/141/34 46/140/34 45/139/34
f 40/144/35 47/143/35 46/142/35
f 40/147/36 48/146/36 47/145/36
f 40/150/37 49/149/37 48/148/37
f 40/153/38 50/152/38 49/151/38
f 40/156/39 38/155/39 50/154/39
f 38/168/40 39/167/40 41/166/40 42/165/40 43/164/40 44/163/40 45/162/40 46/161/40 47/160/40 48/159/40 49/158/40 50/157/40
o group1366412244
g mesh1366412244
usemtl mat12
f 54/172/41 53/171/41 52/170/41 51/169/41
f 53/176/42 56/175/42 55/174/42 52/173/42
f 56/180/43 58/179/43 57/178/43 55/177/43
f 58/184/44 60/183/44 59/182/44 57/181/44
f 60/188/45 62/187/45 61/186/45 59/185/45
f 62/192/46 64/191/46 63/190/46 61/189/46
f 70/208/50 72/207/50 71/206/50 69/205/50
f 72/212/51 74/211/51 73/210/51 71/209/51
f 74/216/52 54/215/52 51/214/52 73/213/52
f 51/228/53 52/227/53 55/226/53 57/225/53 59/224/53 61/223/53 63/222/53 65/221/53 67/220/53 69/219/53 71/218/53 73/217/53
f 74/240/54 72/239/54 70/238/54 68/237/54 66/236/54 64/235/54 62/234/54 60/233/54 58/232/54 56/231/54 53/230/54 54/229/54
usemtl mat7
f 64/196/47 66/195/47 65/194/47 63/193/47
f 68/204/49 70/203/49 69/202/49 67/201/49
usemtl mat8
f 66/200/48 68/199/48 67/198/48 65/197/48
usemtl mat3
f 77/243/55 76/242/55 75/241/55
f 76/246/56 78/245/56 75/244/56
f 78/249/57 79/248/57 75/247/57
f 79/252/58 80/251/58 75/250/58
f 80/255/59 81/254/59 75/253/59
f 81/258/60 82/257/60 75/256/60
f 82/261/61 83/260/61 75/259/61
f 83/264/62 84/263/62 75/262/62
f 84/267/63 85/266/63 75/265/63
f 85/270/64 86/269/64 75/268/64
f 86/273/65 87/272/65 75/271/65
f 87/276/66 77/275/66 75/274/66
f 87/288/67 86/287/67 85/286/67 84/285/67 83/284/67 82/283/67 81/282/67 80/281/67 79/280/67 78/279/67 76/278/67 77/277/67
f 90/291/68 89/290/68 88/289/68
f 90/294/69 91/293/69 89/292/69
f 90/297/70 92/296/70 91/295/70
f 90/300/71 93/299/71 92/298/71
f 90/303/72 94/302/72 93/301/72
f 90/306/73 95/305/73 94/304/73
f 90/309/74 96/308/74 95/307/74
f 90/312/75 97/311/75 96/310/75
f 90/315/76 98/314/76 97/313/76
f 90/318/77 99/317/77 98/316/77
f 90/321/78 100/320/78 99/319/78
f 90/324/79 88/323/79 100/322/79
f 88/336/80 89/335/80 91/334/80 92/333/80 93/332/80 94/331/80 95/330/80 96/329/80 97/328/80 98/327/80 99/326/80 100/325/80
